<svg id="图层_1" data-name="图层 1" xmlns="http://www.w3.org/2000/svg" xmlns:xlink="http://www.w3.org/1999/xlink" viewBox="0 0 109.6 95.45"><defs><style>.cls-1{fill:url(#未命名的渐变_3);}</style><linearGradient id="未命名的渐变_3" x1="49.76" y1="-5.73" x2="104.63" y2="89.31" gradientUnits="userSpaceOnUse"><stop offset="0" stop-color="#f7b52c"/><stop offset="1" stop-color="#e50012"/></linearGradient></defs><title>vee</title><path class="cls-1" d="M41.57,44.53l-7-12.06a2,2,0,0,1,1.73-3h74.52a2,2,0,0,0,1.73-1L118,19.06a2,2,0,0,0-1.73-3H10.69a2,2,0,0,0-1.73,3l52.8,91.45a2,2,0,0,0,3.46,0l35.78-62a2,2,0,0,0-1.73-3h-56A2,2,0,0,1,41.57,44.53Zm10,14.17H75.45a2,2,0,0,1,1.73,3l-12,20.71a2,2,0,0,1-3.46,0L49.8,61.7A2,2,0,0,1,51.54,58.7Z" transform="translate(-8.69 -16.06)"/></svg>